<svg width="178" height="40" viewBox="0 0 178 40" fill="none" xmlns="http://www.w3.org/2000/svg">
<defs><g/><clipPath id="0c361a1521"><path d="M 9.078125 23.683594 L 25.363281 23.683594 L 25.363281 25.769531 L 9.078125 25.769531 Z M 9.078125 23.683594 " clip-rule="nonzero"/></clipPath><clipPath id="9dbc3f92e1"><path d="M 23 1.273438 L 28 1.273438 L 28 6 L 23 6 Z M 23 1.273438 " clip-rule="nonzero"/></clipPath><clipPath id="a9a19cead3"><path d="M 26 5 L 29.34375 5 L 29.34375 10 L 26 10 Z M 26 5 " clip-rule="nonzero"/></clipPath><clipPath id="a7dc7ef8ee"><path d="M 5.570312 4 L 9 4 L 9 8 L 5.570312 8 Z M 5.570312 4 " clip-rule="nonzero"/></clipPath></defs><path fill="#000000" d="M 26.039062 10.414062 C 25.75 9.378906 25.269531 8.40625 24.613281 7.527344 C 24.097656 6.832031 23.488281 6.21875 22.800781 5.699219 C 21.589844 4.789062 20.148438 4.183594 18.628906 3.949219 C 17.464844 3.769531 16.289062 3.808594 15.144531 4.066406 C 13.941406 4.339844 12.824219 4.839844 11.816406 5.554688 C 10.976562 6.148438 10.253906 6.871094 9.667969 7.699219 C 8.894531 8.792969 8.371094 10.070312 8.15625 11.390625 C 7.917969 12.875 8.0625 14.402344 8.578125 15.808594 C 8.871094 16.605469 9.28125 17.359375 9.796875 18.054688 C 10 18.332031 10.222656 18.59375 10.453125 18.839844 C 10.460938 18.84375 10.46875 18.84375 10.476562 18.84375 C 10.570312 18.863281 10.746094 18.898438 11.03125 18.929688 C 11.152344 18.9375 11.273438 18.949219 11.398438 18.957031 C 10.984375 18.585938 10.605469 18.171875 10.269531 17.71875 C 9.785156 17.070312 9.402344 16.359375 9.128906 15.613281 C 8.644531 14.296875 8.511719 12.871094 8.734375 11.480469 C 8.933594 10.246094 9.425781 9.050781 10.148438 8.023438 C 10.699219 7.25 11.375 6.574219 12.160156 6.015625 C 13.101562 5.34375 14.152344 4.878906 15.277344 4.625 C 15.910156 4.480469 16.550781 4.410156 17.195312 4.410156 C 17.644531 4.410156 18.089844 4.445312 18.539062 4.515625 C 19.960938 4.734375 21.308594 5.300781 22.445312 6.152344 C 23.085938 6.636719 23.65625 7.210938 24.140625 7.863281 C 24.753906 8.6875 25.203125 9.597656 25.476562 10.566406 C 25.800781 11.722656 25.867188 12.910156 25.675781 14.097656 C 25.503906 15.164062 25.128906 16.175781 24.5625 17.097656 C 24.140625 17.792969 23.621094 18.414062 23.011719 18.957031 C 23.140625 18.949219 23.269531 18.9375 23.394531 18.929688 C 23.675781 18.898438 23.851562 18.863281 23.945312 18.84375 C 23.949219 18.84375 23.953125 18.84375 23.957031 18.84375 C 24.375 18.398438 24.746094 17.914062 25.066406 17.390625 C 25.671875 16.40625 26.070312 15.328125 26.253906 14.1875 C 26.460938 12.917969 26.386719 11.648438 26.039062 10.414062 " fill-opacity="1" fill-rule="nonzero"/><path fill="#000000" d="M 24.101562 19.519531 C 24.101562 19.484375 24.101562 19.453125 24.097656 19.425781 C 24.09375 19.386719 24.085938 19.292969 24.046875 19.207031 C 24.046875 19.203125 24.046875 19.203125 24.042969 19.199219 C 24.042969 19.195312 24.039062 19.1875 24.039062 19.183594 C 24.015625 19.140625 24.003906 19.121094 23.957031 19.078125 C 23.945312 19.070312 23.757812 19.132812 23.308594 19.175781 C 21.457031 19.332031 19.234375 19.355469 17.210938 19.371094 C 15.191406 19.355469 12.964844 19.332031 11.113281 19.175781 C 10.667969 19.132812 10.476562 19.070312 10.464844 19.078125 C 10.417969 19.121094 10.410156 19.140625 10.386719 19.183594 C 10.382812 19.1875 10.382812 19.195312 10.378906 19.199219 C 10.378906 19.203125 10.378906 19.203125 10.375 19.207031 C 10.335938 19.292969 10.328125 19.386719 10.324219 19.425781 C 10.320312 19.453125 10.320312 19.484375 10.324219 19.519531 C 10.320312 19.570312 10.324219 19.628906 10.335938 19.695312 L 10.503906 20.59375 C 10.507812 20.625 10.59375 20.65625 10.753906 20.683594 C 10.917969 20.710938 11.15625 20.738281 11.46875 20.761719 C 13.160156 20.882812 15.074219 20.898438 16.859375 20.898438 C 16.976562 20.898438 17.09375 20.898438 17.210938 20.898438 C 17.332031 20.898438 17.449219 20.898438 17.566406 20.898438 C 19.347656 20.898438 21.261719 20.882812 22.953125 20.761719 C 23.265625 20.738281 23.503906 20.710938 23.667969 20.683594 C 23.828125 20.65625 23.914062 20.625 23.921875 20.59375 L 24.089844 19.695312 C 24.101562 19.628906 24.101562 19.570312 24.101562 19.519531 " fill-opacity="1" fill-rule="nonzero"/><path fill="#000000" d="M 11.863281 23.828125 C 13.53125 23.925781 15.367188 23.984375 17.210938 23.992188 C 19.058594 23.984375 20.894531 23.925781 22.558594 23.828125 C 22.914062 23.804688 24.472656 23.699219 24.929688 23.527344 C 24.699219 22.859375 24.464844 22.191406 24.234375 21.523438 C 24.15625 21.292969 24.054688 20.992188 23.992188 20.808594 C 23.855469 20.84375 23.707031 20.855469 23.546875 20.878906 C 21.617188 21.070312 19.304688 21.097656 17.195312 21.113281 C 15.085938 21.097656 12.773438 21.070312 10.847656 20.878906 C 10.695312 20.859375 10.558594 20.847656 10.425781 20.816406 C 10.363281 21 10.265625 21.292969 10.1875 21.523438 C 9.957031 22.191406 9.726562 22.859375 9.492188 23.527344 C 9.949219 23.699219 11.507812 23.804688 11.863281 23.828125 " fill-opacity="1" fill-rule="nonzero"/><g clip-path="url(#0c361a1521)"><path fill="#000000" d="M 25.320312 24.035156 C 25.308594 23.964844 25.285156 23.886719 25.25 23.816406 C 25.195312 23.710938 25.027344 23.691406 25.039062 23.714844 C 24.84375 23.917969 22.957031 24.046875 22.558594 24.074219 C 20.894531 24.171875 19.058594 24.230469 17.210938 24.238281 C 15.367188 24.230469 13.53125 24.171875 11.863281 24.074219 C 11.46875 24.046875 9.582031 23.917969 9.382812 23.714844 C 9.394531 23.691406 9.226562 23.710938 9.171875 23.816406 C 9.136719 23.886719 9.113281 23.964844 9.101562 24.035156 C 9.09375 24.097656 9.09375 25.191406 9.09375 25.191406 C 9.128906 25.359375 9.855469 25.445312 10.234375 25.496094 C 12.421875 25.738281 14.910156 25.773438 17.210938 25.765625 C 19.511719 25.773438 22.003906 25.738281 24.191406 25.496094 C 24.566406 25.445312 25.296875 25.359375 25.332031 25.191406 C 25.332031 25.191406 25.328125 24.097656 25.320312 24.035156 " fill-opacity="1" fill-rule="nonzero"/></g><path fill="#000000" d="M 13.96875 6.753906 C 13.453125 6.3125 12.210938 6.882812 11.199219 8.03125 C 10.1875 9.183594 9.785156 10.476562 10.300781 10.921875 C 10.820312 11.367188 12.0625 10.792969 13.074219 9.644531 C 14.085938 8.492188 14.488281 7.199219 13.96875 6.753906 " fill-opacity="1" fill-rule="nonzero"/><path fill="#000000" d="M 10.421875 11.511719 C 10.164062 11.417969 9.789062 11.765625 9.582031 12.296875 C 9.375 12.824219 9.417969 13.332031 9.675781 13.425781 C 9.9375 13.523438 10.3125 13.171875 10.519531 12.644531 C 10.722656 12.113281 10.683594 11.609375 10.421875 11.511719 " fill-opacity="1" fill-rule="nonzero"/><path fill="#000000" d="M 9.792969 13.875 C 9.609375 13.871094 9.457031 14.082031 9.449219 14.347656 C 9.445312 14.609375 9.589844 14.824219 9.773438 14.824219 C 9.957031 14.828125 10.109375 14.617188 10.117188 14.355469 C 10.121094 14.089844 9.976562 13.878906 9.792969 13.875 " fill-opacity="1" fill-rule="nonzero"/><g clip-path="url(#9dbc3f92e1)"><path fill="#000000" d="M 25.316406 5.9375 C 25.253906 5.9375 25.203125 5.894531 25.191406 5.835938 L 24.890625 4.257812 L 23.601562 4.644531 C 23.542969 4.660156 23.480469 4.636719 23.453125 4.582031 C 23.421875 4.53125 23.4375 4.464844 23.484375 4.425781 L 24.5 3.613281 L 23.484375 2.800781 C 23.4375 2.761719 23.421875 2.699219 23.453125 2.644531 C 23.480469 2.59375 23.542969 2.570312 23.601562 2.585938 L 24.890625 2.96875 L 25.191406 1.394531 C 25.203125 1.335938 25.253906 1.292969 25.316406 1.292969 C 25.375 1.292969 25.429688 1.335938 25.441406 1.394531 L 25.742188 2.96875 L 27.03125 2.585938 C 27.085938 2.570312 27.152344 2.59375 27.179688 2.644531 C 27.207031 2.699219 27.195312 2.761719 27.148438 2.800781 L 26.132812 3.613281 L 27.148438 4.425781 C 27.195312 4.464844 27.207031 4.53125 27.179688 4.582031 C 27.152344 4.636719 27.085938 4.660156 27.03125 4.644531 L 25.742188 4.257812 L 25.441406 5.835938 C 25.429688 5.894531 25.375 5.9375 25.316406 5.9375 " fill-opacity="1" fill-rule="nonzero"/></g><g clip-path="url(#a9a19cead3)"><path fill="#000000" d="M 27.941406 9.152344 C 27.898438 9.152344 27.859375 9.121094 27.847656 9.078125 L 27.628906 7.914062 L 26.675781 8.195312 C 26.632812 8.210938 26.585938 8.191406 26.5625 8.152344 C 26.542969 8.113281 26.550781 8.066406 26.585938 8.039062 L 27.335938 7.4375 L 26.585938 6.835938 C 26.550781 6.808594 26.542969 6.757812 26.5625 6.71875 C 26.585938 6.679688 26.632812 6.664062 26.675781 6.675781 L 27.628906 6.960938 L 27.847656 5.792969 C 27.859375 5.75 27.898438 5.71875 27.941406 5.71875 C 27.988281 5.71875 28.027344 5.75 28.035156 5.792969 L 28.257812 6.960938 L 29.210938 6.675781 C 29.253906 6.664062 29.300781 6.679688 29.320312 6.71875 C 29.339844 6.757812 29.332031 6.808594 29.296875 6.835938 L 28.546875 7.4375 L 29.296875 8.039062 C 29.332031 8.066406 29.339844 8.113281 29.320312 8.152344 C 29.300781 8.191406 29.253906 8.210938 29.210938 8.195312 L 28.257812 7.914062 L 28.035156 9.078125 C 28.027344 9.121094 27.988281 9.152344 27.941406 9.152344 " fill-opacity="1" fill-rule="nonzero"/></g><g clip-path="url(#a7dc7ef8ee)"><path fill="#000000" d="M 6.96875 7.800781 C 6.921875 7.800781 6.882812 7.765625 6.875 7.722656 L 6.652344 6.558594 L 5.699219 6.839844 C 5.65625 6.855469 5.609375 6.835938 5.589844 6.796875 C 5.570312 6.757812 5.578125 6.710938 5.613281 6.683594 L 6.363281 6.082031 L 5.613281 5.480469 C 5.578125 5.453125 5.570312 5.402344 5.589844 5.363281 C 5.609375 5.328125 5.65625 5.308594 5.699219 5.320312 L 6.652344 5.605469 L 6.875 4.4375 C 6.882812 4.394531 6.921875 4.363281 6.96875 4.363281 C 7.011719 4.363281 7.050781 4.394531 7.0625 4.4375 L 7.28125 5.605469 L 8.238281 5.320312 C 8.28125 5.308594 8.324219 5.328125 8.347656 5.363281 C 8.367188 5.402344 8.359375 5.453125 8.324219 5.480469 L 7.574219 6.082031 L 8.324219 6.683594 C 8.359375 6.710938 8.367188 6.757812 8.347656 6.796875 C 8.324219 6.835938 8.28125 6.855469 8.238281 6.839844 L 7.28125 6.558594 L 7.0625 7.722656 C 7.050781 7.765625 7.011719 7.800781 6.96875 7.800781 " fill-opacity="1" fill-rule="nonzero"/></g><g fill="#000000" fill-opacity="1"><g transform="translate(36.307976, 22.495154)"><g><path d="M 4.988281 0 L 4.988281 -7.484375 L 12.683594 -7.484375 L 12.683594 -10.496094 L 4.988281 -10.496094 L 4.988281 -14.921875 L 13.578125 -14.921875 L 13.578125 -17.957031 L 1.601562 -17.957031 L 1.601562 0 Z M 4.988281 0 "/></g></g></g><g fill="#000000" fill-opacity="1"><g transform="translate(50.520771, 22.495154)"><g><path d="M 7.648438 0.257812 C 11.695312 0.257812 14.425781 -2.566406 14.425781 -6.683594 C 14.425781 -10.660156 11.648438 -13.484375 7.648438 -13.484375 C 3.648438 -13.484375 0.894531 -10.683594 0.894531 -6.683594 C 0.894531 -2.542969 3.671875 0.257812 7.648438 0.257812 Z M 7.648438 -2.472656 C 5.601562 -2.472656 4.140625 -4.164062 4.140625 -6.683594 C 4.140625 -9.0625 5.601562 -10.753906 7.648438 -10.753906 C 9.742188 -10.753906 11.132812 -9.039062 11.132812 -6.683594 C 11.132812 -4.210938 9.71875 -2.472656 7.648438 -2.472656 Z M 7.648438 -2.472656 "/></g></g></g><g fill="#000000" fill-opacity="1"><g transform="translate(65.863063, 22.495154)"><g><path d="M 4.613281 0 L 4.613281 -6.117188 C 4.613281 -7.859375 4.964844 -8.917969 5.671875 -9.625 C 6.191406 -10.121094 6.941406 -10.425781 8.023438 -10.425781 L 8.753906 -10.425781 L 8.753906 -13.484375 L 8.378906 -13.484375 C 6.824219 -13.484375 5.625 -13.015625 4.613281 -11.625 L 4.613281 -13.203125 L 1.4375 -13.203125 L 1.4375 0 Z M 4.613281 0 "/></g></g></g><g fill="#000000" fill-opacity="1"><g transform="translate(75.063734, 22.495154)"><g><path d="M 7.625 0.257812 C 11.15625 0.257812 13.179688 -1.882812 13.957031 -4.449219 L 10.707031 -4.449219 C 10.285156 -3.367188 9.25 -2.472656 7.742188 -2.472656 C 6.378906 -2.472656 5.296875 -3.175781 4.683594 -4.402344 C 4.449219 -4.800781 4.234375 -5.390625 4.1875 -5.953125 L 14.167969 -5.953125 L 14.167969 -6.636719 C 14.167969 -11.414062 10.945312 -13.484375 7.53125 -13.484375 C 3.011719 -13.484375 0.894531 -9.980469 0.894531 -6.519531 C 0.894531 -2.613281 3.578125 0.257812 7.625 0.257812 Z M 4.332031 -8.332031 C 4.378906 -8.683594 4.496094 -9.132812 4.847656 -9.554688 C 5.460938 -10.496094 6.449219 -10.96875 7.625 -10.96875 C 8.777344 -10.96875 9.8125 -10.496094 10.425781 -9.554688 C 10.753906 -9.15625 10.875 -8.683594 10.921875 -8.332031 Z M 4.332031 -8.332031 "/></g></g></g><g fill="#000000" fill-opacity="1"><g transform="translate(90.123654, 22.495154)"><g><path d="M 8.191406 0 L 8.191406 -2.636719 L 6.753906 -2.636719 C 5.765625 -2.636719 5.671875 -3.175781 5.671875 -3.859375 L 5.671875 -10.660156 L 8.214844 -10.660156 L 8.214844 -13.203125 L 5.671875 -13.203125 L 5.671875 -17.957031 L 2.496094 -17.957031 L 2.496094 -13.203125 L 0.542969 -13.203125 L 0.542969 -10.660156 L 2.496094 -10.660156 L 2.496094 -2.894531 C 2.496094 -0.847656 3.625 0 5.578125 0 Z M 8.191406 0 "/></g></g></g><g fill="#000000" fill-opacity="1"><g transform="translate(99.136078, 22.495154)"><g><path d="M 7.625 0.257812 C 11.15625 0.257812 13.179688 -1.882812 13.957031 -4.449219 L 10.707031 -4.449219 C 10.285156 -3.367188 9.25 -2.472656 7.742188 -2.472656 C 6.378906 -2.472656 5.296875 -3.175781 4.683594 -4.402344 C 4.449219 -4.800781 4.234375 -5.390625 4.1875 -5.953125 L 14.167969 -5.953125 L 14.167969 -6.636719 C 14.167969 -11.414062 10.945312 -13.484375 7.53125 -13.484375 C 3.011719 -13.484375 0.894531 -9.980469 0.894531 -6.519531 C 0.894531 -2.613281 3.578125 0.257812 7.625 0.257812 Z M 4.332031 -8.332031 C 4.378906 -8.683594 4.496094 -9.132812 4.847656 -9.554688 C 5.460938 -10.496094 6.449219 -10.96875 7.625 -10.96875 C 8.777344 -10.96875 9.8125 -10.496094 10.425781 -9.554688 C 10.753906 -9.15625 10.875 -8.683594 10.921875 -8.332031 Z M 4.332031 -8.332031 "/></g></g></g><g fill="#000000" fill-opacity="1"><g transform="translate(114.195998, 22.495154)"><g><path d="M 6.496094 0 L 6.496094 -2.636719 L 5.648438 -2.636719 C 4.871094 -2.636719 4.566406 -2.941406 4.566406 -3.835938 L 4.566406 -17.957031 L 1.386719 -17.957031 L 1.386719 -2.894531 C 1.386719 -0.847656 2.496094 0 4.449219 0 Z M 6.496094 0 "/></g></g></g><g fill="#000000" fill-opacity="1"><g transform="translate(121.302395, 22.495154)"><g><path d="M 6.496094 0 L 6.496094 -2.636719 L 5.648438 -2.636719 C 4.871094 -2.636719 4.566406 -2.941406 4.566406 -3.835938 L 4.566406 -17.957031 L 1.386719 -17.957031 L 1.386719 -2.894531 C 1.386719 -0.847656 2.496094 0 4.449219 0 Z M 6.496094 0 "/></g></g></g></svg>